<?xml version="1.0" encoding="utf-8"?>
<!-- Generator: Adobe Illustrator 25.2.0, SVG Export Plug-In . SVG Version: 6.00 Build 0)  -->
<svg height="37px" version="1.1" id="Capa_1" xmlns="http://www.w3.org/2000/svg" xmlns:xlink="http://www.w3.org/1999/xlink" x="0px" y="0px"
	 viewBox="0 0 44.4 35.9" style="enable-background:new 0 0 44.4 35.9;" xml:space="preserve">
<style type="text/css">
	.st0{fill:#b4465f;}
</style>
<path class="st0" d="M43.2,25.6h-1.1v-7.9c0-1.3-0.6-2.6-1.5-3.5l-5.7-5.7C34,7.6,32.7,7,31.4,7h-2.5V4.2c0-2.1-1.7-3.9-3.9-3.9H4.3
	c-2.1,0-3.9,1.8-3.9,3.9v20.8c0,2.1,1.7,3.9,3.9,3.9h0.6c0,3.6,2.9,6.5,6.5,6.5s6.5-2.9,6.5-6.5h8.8c0,3.6,2.9,6.5,6.5,6.5
	c3.6,0,6.5-2.9,6.5-6.5H43c0.6,0,1.1-0.5,1.1-1.1v-1.1C44.3,26.1,43.8,25.6,43.2,25.6z M11.4,32.2c-1.8,0-3.3-1.5-3.3-3.3
	s1.5-3.3,3.3-3.3s3.3,1.5,3.3,3.3C14.8,30.7,13.3,32.2,11.4,32.2z M25.7,25.6h-8.6c-1.1-1.9-3.2-3.3-5.6-3.3S7,23.6,5.9,25.6H4.4
	c-0.3,0-0.6-0.3-0.6-0.6V4.3c0-0.3,0.3-0.6,0.6-0.6h20.7c0.3,0,0.6,0.3,0.6,0.6V25.6z M28.9,10.3h2.5c0.5,0,0.8,0.2,1.2,0.5l5,5
	h-8.7V10.3z M33.4,32.2c-1.8,0-3.3-1.5-3.3-3.3s1.5-3.3,3.3-3.3s3.3,1.5,3.3,3.3C36.7,30.7,35.1,32.2,33.4,32.2z M38.8,25.2
	c-1.2-1.8-3.2-2.9-5.4-2.9c-1.7,0-3.2,0.6-4.4,1.7v-5h9.9L38.8,25.2L38.8,25.2z"/>
</svg>
