<?xml version="1.0" encoding="utf-8"?>
<!-- Generator: Adobe Illustrator 25.2.0, SVG Export Plug-In . SVG Version: 6.00 Build 0)  -->
<svg height="36" version="1.1" id="Capa_1" xmlns="http://www.w3.org/2000/svg" xmlns:xlink="http://www.w3.org/1999/xlink" x="0px" y="0px"
	 viewBox="0 0 35.4 40.2" style="enable-background:new 0 0 35.4 40.2;" xml:space="preserve">
<style type="text/css">
	.st0{fill:#b4465f;}
</style>
<path class="st0" d="M31.4,15.1h-2.5v-3.6c0-6.2-5-11.3-11.1-11.3c-6.2,0-11.2,5-11.2,11.2v3.7H4.1c-2.1,0-3.7,1.7-3.7,3.7v17.4
	c0,2.1,1.7,3.7,3.7,3.7h27.3c2.1,0,3.7-1.7,3.7-3.7V18.8C35.1,16.8,33.4,15.1,31.4,15.1z M10.3,11.4c0-4.1,3.3-7.4,7.4-7.4
	s7.4,3.3,7.4,7.4v3.7H10.3V11.4z M31.4,36.2H4.1V18.8h27.3C31.4,18.8,31.4,36.2,31.4,36.2z"/>
</svg>
