<?xml version="1.0" encoding="utf-8"?>
<!-- Generator: Adobe Illustrator 25.4.1, SVG Export Plug-In . SVG Version: 6.00 Build 0)  -->
<svg version="1.1" height="100px" id="loader" xmlns="http://www.w3.org/2000/svg" xmlns:xlink="http://www.w3.org/1999/xlink" x="0px" y="0px"
	 viewBox="0 0 60 80" style="enable-background:new 0 0 60 80;" xml:space="preserve">
<style type="text/css">
	.st0{fill:#fad8d5;}
	.st1{fill:#E0074F;}
</style>
<g id="oso">
	<path class="st0" d="M52.7,43.6c-1.9-4.4-7.4-4.9-8.7-5c0-2.8-0.2-5.3-1-7.7c1.2-0.7,4.8-3.1,2.5-6.8c-2-3.3-6.1-1.8-7.1,0
		c-1.6-1.2-3.7-2-6.3-2.5c-3.2-0.5-5.8-0.4-7.8,0.2c-0.5-1.2-2.3-4.4-6-3.2c-4.5,1.5-1.9,7.4-0.3,8l0,0c-1.4,2.4-2.2,5.2-2.8,8.1
		c-1.7-0.1-6.1-0.2-9.2,1.8c-4,2.4-2.6,5.5-1.9,6.5c0.7,1,3.1,3.3,7.4-0.2c1-0.8,1.8-1.5,2.4-2.1l0.1-0.1c-1.9,7.7-3.8,17.3,4.1,18
		c7,0.6,5.2-6.9,7.2-7.8c1-0.4,3.1-0.4,4.4,0.8c1.6,1.5-3.4,7.6,5,8.9c3.2,0.5,6.6,0.1,8.1-9.7c0.3-1.8,0.5-3.6,0.8-5.5
		c1.4,2,3.3,3.6,4.7,4.1C51.6,50.4,54.4,47.6,52.7,43.6z"/>
	<g>
		<path class="st1" d="M31.1,39.7c-0.4,0.6-1.4,0.5-1.9,0c-0.4-0.4-0.4-1-0.2-1.8c0.1-0.4,0.4-1,0.4-1c0.3-0.8,1.7-0.3,2-1
			c0.3-0.6-0.2-1.4-2-1.9c-1.5-0.4-2.8-0.3-3,0.5c-0.2,0.7,0.4,0.9,1.1,1.2c0.7,0.3,0.8,0.4,0.9,1c0.1,0.4-0.2,2.6-0.9,2.8
			c-1.1,0.4-1.7-0.6-1.8-1.2c-0.1-0.6,0.1-1.2,0.1-1.2s-1.1,1.1-0.7,2c0.4,1,1.2,1.6,2.9,1.9c1.7,0.3,3.3,0.3,3.8-0.7
			c0.5-1-0.4-2.3-0.4-2.3S31.5,39.2,31.1,39.7z"/>
		<path class="st1" d="M36.3,33.2c-0.4,0-0.9,0.4-1,1s0.3,1.2,0.7,1.2c0.4,0,0.9-0.4,1-1C37.1,33.8,36.7,33.2,36.3,33.2z"/>
		<path class="st1" d="M22.8,30.9c-0.4,0-0.8,0.4-0.9,1c-0.1,0.6,0.2,1.1,0.6,1.2c0.4,0.1,0.8-0.4,0.9-1
			C23.4,31.5,23.1,30.9,22.8,30.9z"/>
	</g>
	
	<animateTransform attributeType="xml"
                    attributeName="transform"
                    type="rotate"
                    from="0 28 40"
                    to="360 28 40"
                    dur="1s"
                    fill="freeze"
                    repeatCount="indefinite"/>
</g>
<g id="loading">
	<path class="st1" d="M10.1,73.9c-0.3,0.1-0.8,0.3-1.5,0.3C7,74.1,6,73.1,6,71.5c0-1.6,1.1-2.8,2.8-2.8c0.5,0,1.1,0.2,1.3,0.3
		l-0.2,0.7c-0.3-0.1-0.5-0.3-1.1-0.3c-1.2,0-1.9,0.9-1.9,2c0,1.2,0.8,2,1.8,2c0.5,0,0.9-0.2,1.2-0.3L10.1,73.9z"/>
	<path class="st1" d="M14,74l-0.1-0.6l0,0c-0.3,0.4-0.8,0.8-1.6,0.8c-1.1,0-1.6-0.7-1.6-1.5c0-1.2,1.1-2,3.1-2v-0.1
		c0-0.4-0.1-1.2-1.2-1.2c-0.4,0-1,0.2-1.3,0.4l-0.2-0.6c0.4-0.3,1.1-0.4,1.7-0.4c1.6,0,2,1.1,2,2.1v2c0,0.4,0,0.9,0.1,1.2L14,74
		L14,74z M13.9,71.4c-1.1,0-2.2,0.2-2.2,1.2c0,0.6,0.4,0.9,0.9,0.9c0.7,0,1.1-0.4,1.2-0.9c0-0.1,0.1-0.2,0.1-0.3V71.4z"/>
	<path class="st1" d="M16.3,70.5c0-0.6,0-1.2,0-1.6h0.8v1l0,0c0.3-0.7,0.8-1.2,1.4-1.2c0.1,0,0.2,0,0.3,0v0.9c-0.1,0-0.2,0-0.4,0
		c-0.6,0-1.2,0.5-1.2,1.2c0,0.1,0,0.3,0,0.4V74h-0.9V70.5z"/>
	<path class="st1" d="M24.1,68.9c0,0.4,0,0.8,0,1.4v3c0,1.2-0.3,1.9-0.7,2.4c-0.5,0.4-1.2,0.6-1.9,0.6s-1.3-0.2-1.7-0.4l0.3-0.7
		c0.4,0.2,0.9,0.4,1.5,0.4c1,0,1.7-0.5,1.7-1.8v-0.5l0,0c-0.3,0.4-0.8,0.9-1.6,0.9c-1.2,0-2.2-1.1-2.2-2.5c0-1.8,1.2-2.8,2.3-2.8
		c0.9,0,1.4,0.4,1.6,0.9l0,0v-0.8h0.7V68.9z M23.2,70.9c0-0.2,0-0.3-0.1-0.4c-0.2-0.5-0.6-1-1.3-1c-0.9,0-1.5,0.8-1.5,2
		c0,1,0.5,1.9,1.5,1.9c0.5,0,1.1-0.4,1.3-1c0.1-0.2,0.1-0.4,0.1-0.5V70.9z"/>
	<path class="st1" d="M28.5,74l-0.1-0.6l0,0c-0.3,0.4-0.8,0.8-1.6,0.8c-1.1,0-1.6-0.7-1.6-1.5c0-1.2,1.1-2,3.1-2v-0.1
		c0-0.4-0.1-1.2-1.2-1.2c-0.4,0-1,0.2-1.3,0.4l-0.2-0.6c0.4-0.3,1.1-0.4,1.7-0.4c1.6,0,2,1.1,2,2.1v2c0,0.4,0,0.9,0.1,1.2L28.5,74
		L28.5,74z M28.4,71.4c-1.1,0-2.2,0.2-2.2,1.2c0,0.6,0.4,0.9,0.9,0.9c0.7,0,1.1-0.4,1.2-0.9c0-0.1,0.1-0.2,0.1-0.3V71.4z"/>
	<path class="st1" d="M30.8,70.3c0-0.5,0-1,0-1.4h0.8l0.1,0.9l0,0c0.3-0.5,0.9-1,1.7-1c0.7,0,1.9,0.4,1.9,2.2v3.1h-1v-3
		c0-0.8-0.3-1.5-1.2-1.5c-0.6,0-1.1,0.4-1.2,1c0,0.1-0.1,0.3-0.1,0.4v3.1h-1C30.8,74.1,30.8,70.3,30.8,70.3z"/>
	<path class="st1" d="M41.2,66.5v6.2c0,0.4,0,1,0,1.3h-0.8v-0.9l0,0c-0.3,0.5-0.9,1-1.8,1c-1.2,0-2.2-1.1-2.2-2.7
		c0-1.7,1.1-2.8,2.3-2.8c0.8,0,1.3,0.4,1.6,0.8l0,0v-3.1L41.2,66.5L41.2,66.5z M40.2,71c0-0.1,0-0.3,0-0.4c-0.2-0.6-0.6-1.1-1.3-1.1
		c-1,0-1.5,0.9-1.5,2s0.5,1.9,1.5,1.9c0.6,0,1.2-0.4,1.3-1.2c0-0.1,0-0.3,0-0.4V71z"/>
	<path class="st1" d="M47.4,71.5c0,1.9-1.3,2.8-2.6,2.8c-1.4,0-2.5-1.1-2.5-2.7c0-1.7,1.2-2.8,2.6-2.8
		C46.4,68.8,47.4,69.9,47.4,71.5z M43.3,71.5c0,1.2,0.6,2,1.6,2c0.9,0,1.6-0.8,1.6-2c0-0.9-0.4-2-1.5-2
		C43.8,69.5,43.3,70.5,43.3,71.5z"/>
	<path class="st1" d="M48.1,73.5c0-0.4,0.3-0.7,0.6-0.7s0.6,0.3,0.6,0.7c0,0.4-0.3,0.7-0.6,0.7C48.4,74.1,48.1,73.9,48.1,73.5z"/>
	<path class="st1" d="M50.4,73.5c0-0.4,0.3-0.7,0.6-0.7s0.6,0.3,0.6,0.7c0,0.4-0.3,0.7-0.6,0.7C50.5,74.1,50.4,73.9,50.4,73.5z"/>
	<path class="st1" d="M52.5,73.5c0-0.4,0.3-0.7,0.6-0.7s0.6,0.3,0.6,0.7c0,0.4-0.3,0.7-0.6,0.7C52.8,74.1,52.5,73.9,52.5,73.5z"/>
</g>
</svg>
