<?xml version="1.0" encoding="utf-8"?>
<!-- Generator: Adobe Illustrator 25.2.0, SVG Export Plug-In . SVG Version: 6.00 Build 0)  -->
<svg height="25px" version="1.1" id="Capa_1" focusable="false" xmlns="http://www.w3.org/2000/svg" xmlns:xlink="http://www.w3.org/1999/xlink"
	x="0px" y="0px" viewBox="0 0 12 12" style="enable-background:new 0 0 12 12;" xml:space="preserve">
<style type="text/css">
	.st0{fill:#ef4058;}
</style>
<g>
	<path class="st0" d="M0.5,2c0-0.3,0.2-0.5,0.5-0.5h1.2c0.2,0,0.4,0.2,0.5,0.4l0.2,0.6H10c0.3,0,0.5,0.2,0.5,0.5c0,0,0,0.1,0,0.1
		l-1,5c0,0.2-0.3,0.4-0.5,0.4H3.5C3.3,8.5,3.1,8.3,3,8.1l-1-5L1.9,2.5H1C0.7,2.5,0.5,2.3,0.5,2z M7,10c0-0.6,0.4-1,1-1s1,0.4,1,1
		s-0.4,1-1,1S7,10.6,7,10z M3.5,10c0-0.6,0.4-1,1-1s1,0.4,1,1s-0.4,1-1,1S3.5,10.6,3.5,10z"/>
</g>
</svg>
