<?xml version="1.0" encoding="utf-8"?>
<!-- Generator: Adobe Illustrator 26.3.1, SVG Export Plug-In . SVG Version: 6.00 Build 0)  -->
<svg version="1.1" id="Layer_1" xmlns="http://www.w3.org/2000/svg" xmlns:xlink="http://www.w3.org/1999/xlink" x="0px" y="0px"
	 viewBox="0 0 50 50" style="enable-background:new 0 0 50 50;" xml:space="preserve">
<style type="text/css">
	.st0{fill:#EF4058;}
	.st1{fill:#EFEFEF;}
</style>
<path class="st0" d="M35.6,2.6H14.4C7.9,2.6,2.6,7.9,2.6,14.5v13.3c0,6.5,5.3,11.9,11.9,11.9h15.9l9.9,7.7v-8.7
	c4.2-1.8,7.2-6,7.2-10.9V14.5C47.4,7.9,42.1,2.6,35.6,2.6z"/>
<path class="st1" d="M31.9,30.3H18.1c-2.6,0-4.7-2.1-4.7-4.7v-8.8c0-2.6,2.1-4.7,4.7-4.7h13.7c2.6,0,4.7,2.1,4.7,4.7v8.8
	C36.6,28.2,34.5,30.3,31.9,30.3z"/>
</svg>
