<svg height="300px" xmlns="http://www.w3.org/2000/svg" xmlns:xlink="http://www.w3.org/1999/xlink" viewBox="0 0 266.29 284.42"><defs><style>.cls-1{fill:#f8e2c4;}.cls-2{fill:url(#Degradado_sin_nombre_54);}.cls-3{fill:#eacba8;}.cls-4{fill:#5a3e37;}.cls-5{fill:#1a8cbf;}.cls-6{fill:#e35;}</style><linearGradient id="Degradado_sin_nombre_54" x1="71.37" y1="267" x2="194.27" y2="25.79" gradientUnits="userSpaceOnUse"><stop offset="0" stop-color="#a42b26"/><stop offset="1" stop-color="#d1423e"/></linearGradient></defs><g id="Capa_2" data-name="Capa 2"><g id="Capa_1-2" data-name="Capa 1"><path class="cls-1" d="M262.57,158.05h0A14.77,14.77,0,0,0,266,145.28c-.61-3-2.49-5.9-5.62-8.7a131.26,131.26,0,0,0-3.66-20.6,12.17,12.17,0,0,0,2.83-10.12,10.4,10.4,0,0,0-7-7.59,10.28,10.28,0,0,0-7.61-14.54A11.35,11.35,0,0,0,243.85,74c-1.91-2.87-5.23-4.67-9.4-5.11,1.1-4.19.4-8-2-10.8s-6.38-4.18-10.88-3.73c.32-4.14-1-7.78-3.7-10.06s-6.71-3.07-11.08-2a11.37,11.37,0,0,0-6.44-9.94,10.55,10.55,0,0,0-9.92.83c-3.36-1.73-6.83-3.33-10.37-4.79a19.85,19.85,0,0,0-3.27-11.08A18.65,18.65,0,0,0,160,8.26a20.84,20.84,0,0,0-8.49,2.19,46.23,46.23,0,0,0-11-3.12,59.29,59.29,0,0,0-13.66-.71A19.43,19.43,0,0,0,105.6,1.14,17.89,17.89,0,0,0,93.05,18.3,22.44,22.44,0,0,0,93.73,24c-3.57,1-7.06,2.22-10.42,3.53-3.39-1.93-6.94-2.52-10-1.62a10.29,10.29,0,0,0-6.61,6.47A2.69,2.69,0,0,1,64,33.84a10.31,10.31,0,0,0-11.48,6.63,2.67,2.67,0,0,1-2.85,1.78,10.54,10.54,0,0,0-8.28,2.5,11.22,11.22,0,0,0-3.67,8.44,2.5,2.5,0,0,1-2.11,2.19,11.24,11.24,0,0,0-8.85,11,2.44,2.44,0,0,1-1.65,2.3,12.22,12.22,0,0,0-8.84,13.28,2.6,2.6,0,0,1-1.64,2.67,11.29,11.29,0,0,0-6.76,6.69,14.93,14.93,0,0,0,.69,11.29,130.41,130.41,0,0,0-.38,92.14c-2.23,3.85-2.7,8-1.23,11.42,1.41,3.26,4.33,5.38,8.28,6-1.26,4.87-.82,8.91,1.32,12S22,229,26.67,229.58c-.72,4.42.25,8.32,2.74,11a11.88,11.88,0,0,0,9.75,3.53,11.57,11.57,0,0,0,3.92,9.48,11.17,11.17,0,0,0,9.85,2.11c1.5,5.79,6,9,12.09,8.58,1-.07,2.12-.2,3.39-.4a130.28,130.28,0,0,0,22.28,9.51,10.8,10.8,0,0,0,6,7.23,11.46,11.46,0,0,0,10.85-1,9.38,9.38,0,0,0,6.94,4.67,10.32,10.32,0,0,0,8.47-3.2,11.16,11.16,0,0,0,7.73,3.32h.46a10.49,10.49,0,0,0,7.44-3.71,10.59,10.59,0,0,0,8.3,3.12,9.83,9.83,0,0,0,6.91-4.26,10.9,10.9,0,0,0,8.79,1.67,10.41,10.41,0,0,0,6.43-5.06,10.06,10.06,0,0,0,9.58-.12,11.28,11.28,0,0,0,5.18-7.74,131.29,131.29,0,0,0,48.58-37.58c5.68.63,9-1.55,10.47-3a11.31,11.31,0,0,0,2.92-10.56.45.45,0,0,1,.06-.31,11.82,11.82,0,0,0,7.27-6,12.76,12.76,0,0,0,.34-10.16.39.39,0,0,1,.19-.54,12.68,12.68,0,0,0,7.1-7.51c.9-2.64,1.35-6.92-1.61-12.29a.47.47,0,0,1,.21-.3,14.74,14.74,0,0,0,3.29-21.42A.45.45,0,0,1,262.57,158.05Z"/><path class="cls-2" d="M261,155.74a11.22,11.22,0,0,0,2.63-9.67c-.59-2.87-2.91-5.48-5.6-7.65a128.06,128.06,0,0,0-4.28-23.8c4.87-4.28,5-11.25-1.67-13.34a3.14,3.14,0,0,1-2-4.48,6.62,6.62,0,0,0-5.26-10,3,3,0,0,1-2.51-4.25c2.14-6.13-1.39-10.28-7.85-10.67a3.15,3.15,0,0,1-2.8-4.09c2.17-6.94-2.15-11.53-9.41-10.45a3.18,3.18,0,0,1-3.59-3.56c.83-6.65-3.56-10.78-10.91-8.59A3.15,3.15,0,0,1,203.74,42c0-6.56-6.53-10.73-12.39-5.45a129.87,129.87,0,0,0-14.91-6.86A15.64,15.64,0,0,0,174,18.08a15.15,15.15,0,0,0-13.59-7.37,17.35,17.35,0,0,0-8.54,2.68A42,42,0,0,0,140,9.73a53.86,53.86,0,0,0-14.84-.5c-4.62-6.1-11.45-8.31-18.61-5.91A14.15,14.15,0,0,0,96.47,17.07a20.49,20.49,0,0,0,1.77,8.28,128.41,128.41,0,0,0-15.85,5.23c-5-3.64-10.61-3.59-12.76,2a6.5,6.5,0,0,1-6.85,3.94,6.53,6.53,0,0,0-7.46,4.27A6.53,6.53,0,0,1,48.42,45c-4.39-.5-7.75,2.63-7.81,7.3a6.3,6.3,0,0,1-5.12,5.9,7.46,7.46,0,0,0-6,7.46,6.29,6.29,0,0,1-4.49,5.9A8.53,8.53,0,0,0,18.93,81a6.46,6.46,0,0,1-4.15,6.65c-4.69,1.72-7,7.44-3.29,14.41a127.93,127.93,0,0,0-.28,93.71c-4.28,5.74-3.27,12.62,4,13.47a3.18,3.18,0,0,1,2.7,4c-2.29,7.87.57,12.84,8.68,13.56a3.16,3.16,0,0,1,2.85,3.72c-1.41,6.85,2.19,11.66,9.19,10.86a3.09,3.09,0,0,1,3.4,3.32c-.61,6.44,4.19,10,9.61,8.43a3.13,3.13,0,0,1,4,2.29c.65,3.14,2.72,6.77,8.4,6.4a39.42,39.42,0,0,0,4.35-.58A127.64,127.64,0,0,0,93.6,271.82c.61,7.21,7.26,9.25,12.15,5.6a3,3,0,0,1,4.45,1.07c2.45,4.71,7.33,4.3,10.25,1a3.06,3.06,0,0,1,4.59-.12c3.6,3.89,8.3,3.41,11.07-.2a3,3,0,0,1,4.64-.26c3.75,3.9,8.05,3.26,10.47-.68a3,3,0,0,1,4.44-.71c4.08,3,8.72,1.75,10.64-2.36a3,3,0,0,1,4.1-1.35c5.74,3.28,10.29-1.17,10.27-6.78a128.54,128.54,0,0,0,51.07-39.5c8.56,1.94,12.52-3,11.37-8.85a4.06,4.06,0,0,1,2.7-4.7c4.65-1.42,7.15-6.14,5.21-11.38a4.22,4.22,0,0,1,2.25-5.38c5-2.2,7.5-7.79,3.71-14.69a4.07,4.07,0,0,1,1.4-5.26,11.05,11.05,0,0,0,2.46-16.17A4.3,4.3,0,0,1,261,155.74Z"/><path class="cls-1" d="M185,66.07c-4.22-10-16.47-10.91-19.55-11a59.16,59.16,0,0,0-2.11-17.3c2.83-1.57,10.8-6.94,5.6-15.19-4.64-7.37-13.63-3.94-15.78.1A32.34,32.34,0,0,0,139,17.19c-7.14-1.14-12.85-.9-17.46.35-1.19-2.74-5.16-9.88-13.33-7.13-10,3.36-4.19,16.55-.67,17.8h0c-3.21,5.27-4.9,11.71-6.26,18-3.75-.23-13.61-.35-20.7,3.9-8.93,5.35-5.72,12.21-4.21,14.38s6.86,7.27,16.53-.5a66.58,66.58,0,0,0,5.41-4.85l.19-.2c-4.11,17.55-8.5,39,9.24,40.6,15.7,1.42,11.45-15.36,16.08-17.42,2.2-1,6.88-.91,9.64,1.81,3.45,3.41-7.54,16.89,11.18,19.88,7.2,1.15,14.7.13,18-21.64.59-3.89,1.22-8.06,1.73-12.34,3.13,4.37,7.3,8.12,10.63,9.18C182.48,81.37,188.84,75.13,185,66.07Z"/><path class="cls-3" d="M159.51,85.45s-1.07,12.27-6.94,15.15-14.4-.54-15.89-3.1c4,3.17,12.2,2.3,14.86.75C154.6,96.47,157.41,92,159.51,85.45Z"/><path class="cls-3" d="M157.37,21.65s7.18-3.79,10.25,3.68c2.08,5.07-2.51,8-2.51,8s2.61-2.08.64-7.47S157.37,21.65,157.37,21.65Z"/><path class="cls-3" d="M133.9,42.2s11.49,1.93,10.53,11.1c-.5,4.76-3.56,9.39-10.53,8.75a9.37,9.37,0,0,0,9.32-9C143.43,44.34,133.9,42.2,133.9,42.2Z"/><path class="cls-4" d="M169.67,75.62c2.16-.74,5-2.56,6.64-7a16.51,16.51,0,0,0,.29-10.92,28.87,28.87,0,0,0-11.15-2.59c0,2.34-.34,7.27-.66,9.94a187.76,187.76,0,0,1-34.59-2.48,255.76,255.76,0,0,1-30.65-7.71l1.76-8.63a46.12,46.12,0,0,0-15.24,1.54,16.46,16.46,0,0,0,0,9,14.53,14.53,0,0,0,6.28,7.66l.54-.39a66.58,66.58,0,0,0,5.41-4.85l.19-.2c-.93,4-1.88,8.18-2.58,12.3a199,199,0,0,0,32,8c14.92,2.39,29.42,3.36,34.64,3.66.05-.25.09-.5.13-.76.59-3.89,1.22-8.06,1.73-12.34A34.58,34.58,0,0,0,169.67,75.62Z"/><polygon class="cls-5" points="98.45 59.34 96.78 66.9 128.21 75.77 163.22 78.69 164.38 69.96 136.18 67.31 105.67 60.98 98.45 59.34"/><path class="cls-6" d="M129.17,74.31C110.31,71,99.51,67.54,96.83,66.63c-.2,1-.37,1.92-.55,2.88a320.52,320.52,0,0,0,32.33,7.68,204.13,204.13,0,0,0,34.32,3.45c.15-1,.29-2,.44-3C160.24,77.72,148,77.64,129.17,74.31Z"/><path class="cls-6" d="M129.71,69.59c-17.92-3-28.6-6.23-31.94-7.31-.21.95-.42,1.88-.63,2.84a324.73,324.73,0,0,0,32,7.35,202.16,202.16,0,0,0,34.48,3.2c.14-1,.27-2,.4-3C161.11,72.77,148.76,72.82,129.71,69.59Z"/><path class="cls-6" d="M130.35,64.46a243.11,243.11,0,0,1-31.43-7.14l-.65,2.81a322.35,322.35,0,0,0,31.54,7.22,203,203,0,0,0,34.5,3.2q.18-1.56.3-3C161.53,67.65,149.25,67.68,130.35,64.46Z"/><path class="cls-3" d="M180.53,63.2s5.12,5.55,3.09,10.62a5.67,5.67,0,0,1-6.83,3.68s3.26.16,4.86-4.48S180.53,63.2,180.53,63.2Z"/><path class="cls-4" d="M137.38,49.31c-.64,1.44-3.78.32-4.48,2.13a23.18,23.18,0,0,0-.69,2.24c-.36,1.72-.69,2.91.37,4s3.9,1.62,4.11,0a2.7,2.7,0,0,1,5-1.19c-1.09-1.31-3.34-.32-3.34,1.4,0,3.7-5,3.24-8.74,2.56s-4.73-2-5.94-3.93c-1.66-2.6-4.65.28-4.65.28s2.68-5.49,5.49-2.16c.85,1,1.57,3.36,4,2.65,1.49-.44,2.16-5.09,2-6.17s-.33-1.49-1.92-2.14-2.84-.93-2.35-2.61,3.36-2.13,6.69-1.25C137,46.14,138,47.87,137.38,49.31Z"/><path class="cls-4" d="M122.76,33l-3.65,2-2-3.65a1.49,1.49,0,0,0-2.63,1.41l2,3.66-3.66,2A1.49,1.49,0,0,0,114.24,41l3.65-2,2,3.66a1.49,1.49,0,0,0,2.63-1.42l-2-3.65,3.65-2A1.49,1.49,0,1,0,122.76,33Z"/><path class="cls-4" d="M153.3,38.21l-3.65,2-2-3.66a1.49,1.49,0,1,0-2.63,1.42l2,3.65-3.65,2a1.49,1.49,0,1,0,1.41,2.62l3.65-2,2,3.65A1.49,1.49,0,1,0,153,46.46l-2-3.66,3.66-2a1.49,1.49,0,0,0-1.42-2.63Z"/><path class="cls-1" d="M82.54,197.85V212H76.42V197.85H42.58v-5.4L74,126.33h6.51L49.09,192.45H76.42V165.33h6.12v27.12h11.4v5.4Z"/><path class="cls-1" d="M129.94,212.61q-10,0-16.2-6.36t-6.24-16.44V148.53q0-10.08,6.24-16.44t16.2-6.36q10,0,16.2,6.36t6.24,16.44v41.28q0,10.08-6.24,16.44T129.94,212.61Zm16.32-63.48q0-7.92-4.26-13t-12.06-5q-7.68,0-12,5t-4.32,13v40.08q0,7.92,4.26,13t12.06,5q7.68,0,12-5t4.32-13Z"/><path class="cls-1" d="M205.9,197.85V212h-6.12V197.85H165.94v-5.4l31.44-66.12h6.5l-31.43,66.11h27.33V165.33h6.12v27.12h11.4v5.4Z"/></g></g></svg>