<svg xmlns="http://www.w3.org/2000/svg" viewBox="0 0 275.62 103.74"><defs><style>.cls-1{fill:#fff;}</style></defs><g id="Capa_2" data-name="Capa 2"><g id="Capa_1-2" data-name="Capa 1"><path class="cls-1" d="M89.16,43.25a58.11,58.11,0,0,0-2.47-16.93c2.75-1.61,10.45-7.07,5.16-15-4.73-7.13-13.48-3.56-15.5.45a31.71,31.71,0,0,0-14-5.07c-7-1-12.64-.6-17.14.74C44,4.73,39.92-2.19,32,.69,22.18,4.22,28.22,17,31.7,18.19h0C28.68,23.44,27.15,29.8,26,36c-3.68-.14-13.36,0-20.24,4.3C-2.93,45.75.38,52.42,1.92,54.52s6.9,7,16.22-.87a65.82,65.82,0,0,0,5.2-4.89l.19-.2c-3.64,17.33-7.46,38.49,10,39.66,15.45,1,10.89-15.34,15.39-17.47a9.51,9.51,0,0,1,9.51,1.56c3.46,3.27-7,16.76,11.44,19.27,7.09,1,14.43-.21,17.2-21.66.5-3.84,1-8,1.42-12.17,3.17,4.22,7.36,7.81,10.65,8.78,7.34,2.15,13.44-4.12,9.47-12.93C104.24,43.92,92.18,43.26,89.16,43.25ZM41.79,32.11a2.05,2.05,0,0,1-1.45-2.42c.13-1.25,1-2.18,1.9-2.09A2,2,0,0,1,43.69,30C43.56,31.26,42.72,32.2,41.79,32.11ZM62.46,47.59c-1.08,2.16-4.62,2.29-8.34,1.71s-5.59-1.83-6.43-3.89,1.49-4.48,1.49-4.48a7.24,7.24,0,0,0-.2,2.78,3.1,3.1,0,0,0,4,2.51c1.45-.47,2-5,1.79-6.11s-.35-1.45-1.93-2-2.81-.85-2.37-2.51S53.7,33.38,57,34.16c4,1,5.08,2.64,4.48,4.07s-3.71.41-4.35,2.2a22.09,22.09,0,0,0-.63,2.21c-.31,1.7-.61,2.87.46,3.92s3.09,1.21,4-.14c.75-1.09.31-3.9.31-3.9S63.55,45.42,62.46,47.59Zm9.12-10.88c-1-.1-1.69-1.26-1.56-2.6s1-2.34,2-2.24,1.69,1.26,1.55,2.6S72.57,36.81,71.58,36.71Z"/><path class="cls-1" d="M121.81,43.81a3.16,3.16,0,0,0,3,.6c1-.34,1.59-1.26,1.72-2.76.57-8.07,1.34-15.57,2.82-21.72s3.18-10.82,6.15-10.73,2.79,5.32,2.44,11.38c-.11,1.84-.35,5.22-.7,9.58s-.49,7.17-.43,8.4a3.47,3.47,0,0,0,1.1,2.38,3.25,3.25,0,0,0,2.52,1,2,2,0,0,0,1.6-.61,3.21,3.21,0,0,0,.44-1.82c.19-5.4.53-10,1-13.87.4-3.2,1.14-12,5.34-12,4.65.06,2.34,12.8,2,16.78a68.53,68.53,0,0,0-.42,8.68,11.59,11.59,0,0,0,1,4.39,6.64,6.64,0,0,0,2.68,3,7.48,7.48,0,0,0,4.41,1c5-.37,6.38-6,7.24-8.92a7.42,7.42,0,0,0,5.07,2.4c3.84.31,5.5-2.74,6.47-6.5.16,6.9,3.27,8.8,4.57,9.26a4.39,4.39,0,0,0,3.17-.07c4.22-1.75,5.62-7.67,6.38-11,0,2.41,0,4.67.1,6.71a3.36,3.36,0,0,0,1.65,2.7,3.48,3.48,0,0,0,3.1.54c1-.33,1.51-1.2,1.49-2.62,0-2.07.1-4.11.21-6.16.44-7.91,2.82-17.22,6.05-22.12.95-1.46,2.19-2.5,3.57-2.37,4.66.47,3.08,13.23,2.67,18.36a100.3,100.3,0,0,0-.48,10.29c.08,1.6.31,8.34,7.23,7.75a6.11,6.11,0,0,0,4.1-2.23,19.45,19.45,0,0,0,2.81-5.31,6.6,6.6,0,0,0,4.72,2.49c3.71.33,5.56-2.91,6.49-6.85.18,7.24,3.18,9.25,4.43,9.73a3.92,3.92,0,0,0,3.06-.06c2.4-1.07,3.85-3.67,4.78-6.35.85-2.45,1.27-6.67.71-6.81-.34-.09-.62,0-.75.83-.06.39-.76,4.67-2.25,6.59a2.35,2.35,0,0,1-2.28,1.09c-1-.18-1.8-1.78-2-3.69-.26-2.68.07-5.23.43-10s.52-7.41.5-7.94a2.52,2.52,0,0,0-1.28-1.88,3.94,3.94,0,0,0-2.48-.8,1.58,1.58,0,0,0-1.65,1.5c-.09.85-.49,12.34-2.68,19.12-.71,2.19-2.47,4.4-4.91,3.73-2.7-.74-1.54-6.89-1-12.13.17-1.77.31-3.53.49-5.28s.29-3.29.32-4.61v-.16A3,3,0,0,0,227,14.32a4.85,4.85,0,0,0-3.08-.89c-.75,0-1.1.47-1.07,1.32,0,.1,0,.35.07.75s.07.69.08.9q-.08,1.52-.61,7.12a66.53,66.53,0,0,0-.39,8.92A11,11,0,0,0,223.12,37c-.77,2.15-1.94,4.62-3.16,5.66-1.91,1.62-4.71,0-4.69-2.88,0-1.61.08-5.14.49-10.61s.6-8.72.55-9.78q-.62-12.22-8.73-11.81-2.66.13-5.25,3.51a23.82,23.82,0,0,0-4,8.65c0-.37.11-1.35.23-2.93s.19-2.57.22-2.94a2.35,2.35,0,0,0-1.33-2.21,3.89,3.89,0,0,0-3.1-.63,2.31,2.31,0,0,0-1.81,2.32c-.31,3-.55,5.85-.75,8.54-.24,1.28-.55,2.84-.87,4.43s-.8,5.21-1.65,8.39c-.48,1.76-1.4,5-4.11,4.47-1.06-.2-1.86-1.69-2-3.51-.26-2.55.1-5,.48-9.53s.57-7.08.55-7.58a2.38,2.38,0,0,0-1.31-1.79A4.37,4.37,0,0,0,180.3,16a1.6,1.6,0,0,0-1.72,1.44c-.1.81-.56,11.76-2.85,18.24-.74,2.09-2.75,4.71-4.79,3.72-2.53-1.23-1.89-6.71-1.35-11.71.18-1.69.32-3.37.52-5s.32-3.13.35-4.39V18.1A2.78,2.78,0,0,0,169,15.9a5.35,5.35,0,0,0-3.2-.84,1,1,0,0,0-1.1,1.26c0,.1,0,.34.06.71s.07.67.08.87q-.08,1.44-.66,6.78a58.77,58.77,0,0,0-.43,8.51,9,9,0,0,0,1.16,4.24c-.81,2.7-2.4,7.41-6.28,7.34-4.74-.08-2.64-8.37-2.39-12.74.36-6.6.48-11.35-.46-14.27-1.65-5.12-5.26-5.33-7.23-5.1s-4.24,1.64-5.68,5.66q-1.53-10.74-7.57-10.47-2.58.12-4.64,3.48a28.88,28.88,0,0,0-3.28,9.15c0-.39.1-1.41.23-3.08s.19-2.68.23-3.07A2.5,2.5,0,0,0,126.5,12a3.76,3.76,0,0,0-3.1-.69,2.4,2.4,0,0,0-1.81,2.42q-1.2,15.84-1.28,27.23A3.4,3.4,0,0,0,121.81,43.81Z"/><path class="cls-1" d="M274,77.19V77.1a2.27,2.27,0,0,0-.35-4.42l0-.1c2.25-1.72.22-4.86-2.21-4.53l-.08-.1c1.37-1.39-.53-3.89-3.06-2.86a12.88,12.88,0,0,0-4.73-1.93l0-.11c-.61-2.88-3.83-2.62-4.27-.09A2.27,2.27,0,0,0,255,64.35c-2.27-2-5.06,1-3.93,3.32-1.74-1.31-4,1.39-2.1,3.75a13,13,0,0,0-.81,4.47,13.49,13.49,0,0,0,.28,2.57,41.88,41.88,0,0,0-6,2.43c-2.25-5-4.08-9.29-5.24-12.72a18.63,18.63,0,0,0,4.19-8c.81-4.36-.06-10.06-6.08-9.29-6.61.86-7,8.87-6.78,13a38.9,38.9,0,0,0,2.16,10.31c1.32,3.94,2.64,7.76,3.83,10.37a11.48,11.48,0,0,0-1.32.84v0l-.14.14a12.54,12.54,0,0,0-1.74,1.6c-3.85,3.13-7.08,2.93-8.71.65-1.47-2.07-1.32-6-1.22-9.77.12-4.42,1.23-13.65,1.15-14.45a4.42,4.42,0,0,0-.22-1.36,3.42,3.42,0,0,0-1.78-1.5,4.26,4.26,0,0,0-2.94-.42,2.18,2.18,0,0,0-1.68,2.17c0,.33-.09.67-.13,1a11.23,11.23,0,0,0-5.5-1.1,11,11,0,0,0-8.16,4.5,16.44,16.44,0,0,0-3.15,8.4A17,17,0,0,0,200,84.78a8.57,8.57,0,0,0,1.62,2.37c-1.24,4.35-2.92,6.61-4.65,7.2-3.62,1.25-5.17-2-5.24-4.81a61.36,61.36,0,0,1,.95-9.4c.51-3.21,1.75-7.75-2.05-10.38-2.95-2.05-7.48-2-8.79-2.24q1.83-6.78,1.7-9.65c-.2-4.52-2.29-6.69-6.24-6.51a7.24,7.24,0,0,0-5.74,2.8,9.16,9.16,0,0,0-1.86,6.16,11,11,0,0,0,2.58,6.58,10.73,10.73,0,0,0,6.56,3.65c-2.08,7.35-4.87,16.28-7.56,18.13a3.08,3.08,0,0,1-2.44.53c-1.25-.23-2.2-1.93-2.41-4-.3-2.91.12-5.7.59-10.89s.7-8.07.67-8.65a2.69,2.69,0,0,0-1.56-2,5.27,5.27,0,0,0-3-.85,1.88,1.88,0,0,0-2,1.64c-.12.93-.69,13.44-3.42,20.84-.88,2.39-3.26,5.38-5.67,4.26-3-1.4-2.24-7.66-1.59-13.37.22-1.93.4-3.85.63-5.76s.38-3.58.43-5v-.18a3.13,3.13,0,0,0-1.74-2.5,6.33,6.33,0,0,0-3.78-.95,1.21,1.21,0,0,0-1.31,1.44c0,.11,0,.38.07.81s.08.76.09,1c-.06,1.09-.32,3.68-.79,7.75a63.63,63.63,0,0,0-.53,9.72,11.33,11.33,0,0,0,1.05,4.37,12.72,12.72,0,0,1-2.71,4.48c-1.91,1.62-4.71,0-4.69-2.88,0-1.61.08-5.14.5-10.61s.59-8.73.54-9.78q-.61-12.22-8.73-11.81-2.66.14-5.25,3.51a23.82,23.82,0,0,0-4,8.65c0-.37.11-1.35.23-2.94s.19-2.56.22-2.93a2.35,2.35,0,0,0-1.33-2.21,3.89,3.89,0,0,0-3.1-.63A2.31,2.31,0,0,0,114.42,62a178.43,178.43,0,0,0-1.13,26,3.36,3.36,0,0,0,1.65,2.7,3.48,3.48,0,0,0,3.1.54c1-.33,1.51-1.2,1.49-2.63,0-2.06.1-4.1.21-6.15.44-7.91,2.82-17.22,6.05-22.12.95-1.46,2.19-2.51,3.57-2.37,4.66.47,3.08,13.23,2.67,18.36s-.56,8.56-.48,10.29.31,8.33,7.23,7.75a6.08,6.08,0,0,0,4.1-2.24,16.89,16.89,0,0,0,2.31-4,7.23,7.23,0,0,0,6.65,3.45c4.53-.49,6.45-3.4,7.61-7.7.18,7.88,3.8,10.25,5.39,10.57,4.56.91,7.29-2.53,8.77-5,3.06-5,5.34-12.69,7.13-18.62.68.06,1.26.15,1.71.2,2.45.27,3.09,1.6,3.38,3.29.8,4.79-2,9.29-1.69,14.58a9.05,9.05,0,0,0,8.72,8c4.73.17,7.46-3.62,8.55-5.93a26.05,26.05,0,0,0,1.18-3,6.83,6.83,0,0,0,9.33-.71,13.88,13.88,0,0,0,2.05-3,28.31,28.31,0,0,0,2-6.75s-2,14.07,7.55,14a12.68,12.68,0,0,0,6-1.83,11.84,11.84,0,0,0-.85,7.7c1.57,7.85,9.25,7.21,12.55,4.36a12.93,12.93,0,0,0,4.21-10.24,23.43,23.43,0,0,0-2.17-9.3,22.9,22.9,0,0,1,5.55-2.14,13.1,13.1,0,0,0,.83,2l-.06.08c-1.83,2.31.43,4.63,2.66,3.35a2.28,2.28,0,0,0,3.8,2.41c-.1,3,3.89,3.28,5,1h0c.16,2.1,3.53,2.12,4.19-.72a13,13,0,0,0,7.55-6.86C275.75,81.31,276.24,78.23,274,77.19Zm-93.84-10c-4.63-1-4.22-11.84-.6-11.84C182.83,55.38,181.2,62.89,180.16,67.21ZM209,86c-5.5.25-4.66-9-3.76-12.56s3.72-9.48,10.46-8C215.59,69.9,215.22,85.73,209,86Zm28.58-31.46c2.43.47,3.07,5.24-1,11.63C233.94,58.4,234.07,53.88,237.56,54.56Zm-3.77,46.31c-5.76.14-5.25-12,1.32-15a46.17,46.17,0,0,1,1.72,4.89C237.43,93.06,239.29,100.73,233.79,100.87Zm35.72-28.05a1.14,1.14,0,0,1-.8.3,1.41,1.41,0,0,1-.79-.28,1.62,1.62,0,0,0-.54-.28c-.35,0-.74.32-1.16,1a4.88,4.88,0,0,0-.65,2.78v3.55a2.16,2.16,0,0,0,.33,1.29c.22.3.7.45,1.45.45V82h-4.5v0l-.74.13a7,7,0,0,1-1,.08,1.75,1.75,0,0,1-1.36-.45,1.83,1.83,0,0,1-.39-1.26A4.38,4.38,0,0,1,258,81.78a4.11,4.11,0,0,1-2,.43,2.82,2.82,0,0,1-2-.75,2.51,2.51,0,0,1-.8-1.9,2.55,2.55,0,0,1,1.66-2.75,20.34,20.34,0,0,1,4.54-.82V75.1a7.1,7.1,0,0,0-.35-2.51q-.33-.87-1.65-.87a1.8,1.8,0,0,0-1.31.35,1.45,1.45,0,0,0-.33,1,1.15,1.15,0,0,1-1.91.93,1,1,0,0,1-.32-.76,1.9,1.9,0,0,1,1.25-1.67A5.83,5.83,0,0,1,257.4,71c1.51,0,2.51.31,3,.94a4.26,4.26,0,0,1,.77,2.79V80.5a1.25,1.25,0,0,0,.23.85.88.88,0,0,0,.57.22,2.19,2.19,0,0,0,1.29-.32,1.69,1.69,0,0,0,.45-1.41V73.45a1.33,1.33,0,0,0-.5-1.24,2.5,2.5,0,0,0-1.28-.3v-.4l3.61-.57v2.51a4.58,4.58,0,0,1,1.37-2,2.91,2.91,0,0,1,1.73-.54,1.37,1.37,0,0,1,.81.28,1,1,0,0,1,.36.8A1,1,0,0,1,269.51,72.82Z"/><path class="cls-1" d="M255.27,79.18a2.2,2.2,0,0,0,.48,1.47,1.42,1.42,0,0,0,1.11.57,2.18,2.18,0,0,0,1.81-.91,3.44,3.44,0,0,0,.71-2.16V76.77a7.92,7.92,0,0,0-2.79.49A1.88,1.88,0,0,0,255.27,79.18Z"/></g></g></svg>