<?xml version="1.0" encoding="utf-8"?>
<!-- Generator: Adobe Illustrator 25.1.0, SVG Export Plug-In . SVG Version: 6.00 Build 0)  -->
<svg height="170px" version="1.1" id="Capa_1" xmlns="http://www.w3.org/2000/svg" xmlns:xlink="http://www.w3.org/1999/xlink" x="0px" y="0px"
	 viewBox="0 0 328.7 351.1" style="enable-background:new 0 0 328.7 351.1;" xml:space="preserve">
<style type="text/css">
	.st0{fill:#F8E2C4;}
	.st1{fill:url(#SVGID_1_);}
	.st2{fill:url(#SVGID_2_);}
	.st3{fill:url(#SVGID_3_);}
	.st4{fill:#F6EAE0;}
	.st5{fill:#77615E;}
	.st6{fill:#EACAA7;}
	.st7{fill:#5A3E38;}
	.st8{fill:#168BBF;}
	.st9{fill:#ED3255;}
</style>
<path class="st0" d="M323.9,196.3L323.9,196.3c3.9-4.6,5.4-10.1,4.2-15.8c-0.7-3.7-3.1-7.3-6.9-10.7c-0.8-8.6-2.3-17.1-4.5-25.4
	c3.1-3.7,4.4-8.3,3.5-12.5c-0.9-4.3-4-7.7-8.6-9.4c1.7-3.8,1.6-7.9-0.3-11.4c-1.8-3.4-5.1-5.8-9.1-6.5c1.3-4.5,0.9-8.7-1.3-12
	c-2.4-3.5-6.5-5.8-11.6-6.3c1.4-5.2,0.5-9.9-2.5-13.3c-3-3.5-7.9-5.2-13.4-4.6c0.4-5.1-1.2-9.6-4.6-12.4c-3.5-2.9-8.3-3.8-13.7-2.5
	c-0.3-5.5-3.3-10.2-7.9-12.3c-3.9-1.8-8.3-1.3-12.3,1c-4.1-2.1-8.4-4.1-12.8-5.9c0.1-3.8-0.8-8.6-4-13.7
	c-4.7-7.4-12.2-11.5-20.7-11.2c-3.6,0.1-7.2,1.1-10.5,2.7c-4.1-1.8-8.7-3.1-13.6-3.9c-6-1-11.7-1.3-16.9-0.9
	c-6.8-7.5-16.5-10-26.2-6.8c-9.5,3.2-15.4,11.3-15.5,21.2c0,2.3,0.3,4.6,0.8,7c-4.4,1.3-8.7,2.7-12.9,4.4c-4.2-2.4-8.6-3.1-12.3-2
	c-3.7,1.1-6.6,3.9-8.2,8c-0.5,1.2-2,2.1-3.3,1.9c-6.3-0.9-11.9,2.3-14.2,8.2c-0.6,1.5-2,2.4-3.5,2.2c-3.8-0.4-7.5,0.7-10.2,3.1
	c-2.9,2.5-4.5,6.2-4.5,10.4c0,1.5-1.4,2.4-2.6,2.7c-6.4,1.5-10.7,6.8-10.9,13.5c0,1.3-0.9,2.5-2,2.8c-7.1,1.9-11.6,8.7-10.9,16.4
	c0.1,1.4-0.7,2.8-2,3.3c-3.9,1.4-6.9,4.4-8.3,8.3c-1.6,4.2-1.3,9.1,0.8,13.9c-7,18.4-10.6,37.7-10.6,57.5c0,19.3,3.4,38.2,10.1,56.3
	c-2.7,4.8-3.3,9.9-1.5,14.1c1.7,4,5.3,6.6,10.2,7.5c-1.6,6-1,11,1.6,14.9c2.5,3.7,6.7,6,12.5,6.6c-0.9,5.5,0.3,10.3,3.4,13.6
	c2.9,3.1,7.1,4.7,12,4.4c-0.2,4.8,1.6,9,4.8,11.7c3.3,2.7,7.7,3.7,12.2,2.6c1.9,7.1,7.4,11.1,14.9,10.6c1.2-0.1,2.6-0.2,4.2-0.5
	c8.8,4.8,18,8.7,27.5,11.7c1.1,4.1,3.7,7.3,7.4,8.9c4.2,1.9,9.2,1.4,13.4-1.3c2,3.3,5,5.3,8.6,5.8c3.7,0.4,7.6-1,10.5-4
	c2.8,2.7,6.1,4.1,9.5,4.1c0.2,0,0.4,0,0.6,0c3.5-0.2,6.7-1.8,9.2-4.6c3.1,2.9,6.7,4.2,10.2,3.8c3.4-0.4,6.3-2.2,8.5-5.3
	c3.4,2.3,7.2,3,10.8,2.1c3.3-0.9,6.2-3.1,7.9-6.2c4,1.9,8.3,1.9,11.8-0.1c3.3-1.9,5.6-5.4,6.4-9.6c23.3-10.4,43.9-26.4,60-46.4
	c7,0.8,11-1.9,12.9-3.7c3.3-3.2,4.6-7.9,3.6-13c0-0.2,0.1-0.4,0.1-0.4c4-1.2,7.2-3.9,9-7.5c1.9-3.8,2-8.2,0.4-12.5
	c-0.1-0.2-0.1-0.5,0.2-0.7c4.2-1.9,7.4-5.2,8.8-9.3c1.1-3.3,1.7-8.5-2-15.2c0,0,0.1-0.2,0.3-0.4c4.3-3,7-7.3,7.8-12.3
	c0.8-5-0.6-10-3.8-14.2C323.7,196.8,323.7,196.5,323.9,196.3z"/>
<linearGradient id="SVGID_1_" gradientUnits="userSpaceOnUse" x1="87.8536" y1="330.8382" x2="239.5681" y2="33.0819">
	<stop  offset="0" style="stop-color:#A32B26"/>
	<stop  offset="1" style="stop-color:#D1423E"/>
</linearGradient>
<path class="st1" d="M321.9,193.5c2.2-2.6,4.3-6.6,3.2-11.9c-0.7-3.5-3.6-6.8-6.9-9.4c-0.8-10.1-2.6-19.9-5.3-29.4
	c6-5.3,6.2-13.9-2.1-16.5c-2.4-0.8-3.7-3.3-2.5-5.5c2.9-5.6-0.2-11.6-6.5-12.3c-2.7-0.3-4-2.7-3.1-5.2c2.6-7.6-1.7-12.7-9.7-13.2
	c-2.5-0.1-4.2-2.6-3.5-5c2.7-8.6-2.7-14.2-11.6-12.9c-2.6,0.4-4.8-1.8-4.4-4.4c1-8.2-4.4-13.3-13.5-10.6c-2.5,0.8-4.9-1.3-4.9-3.9
	c0-8.1-8.1-13.2-15.3-6.7c-5.9-3.2-12.1-6-18.4-8.5c0.7-3.5,0.6-8.6-3-14.4c-3.8-6-9.9-9.3-16.8-9.1c-3.7,0.1-7.4,1.3-10.5,3.3
	c-4.4-2.1-9.3-3.7-14.7-4.5c-6.7-1.1-12.8-1.3-18.3-0.6c-5.7-7.5-14.1-10.3-23-7.3c-7.7,2.6-12.3,8.9-12.4,17c0,3.4,0.8,7,2.2,10.2
	c-6.7,1.7-13.2,3.9-19.6,6.5c-6.2-4.5-13.1-4.4-15.8,2.5c-1.3,3.3-5,5.4-8.5,4.9c-4.2-0.6-7.7,1.3-9.2,5.3c-1.4,3.5-4.8,5.7-8.5,5.2
	c-5.4-0.6-9.6,3.2-9.6,9c0,3.6-2.8,6.5-6.3,7.3c-4.2,1-7.2,4.3-7.4,9.2c-0.1,3.4-2.3,6.4-5.5,7.3c-4.7,1.3-8.1,5.7-7.6,11.6
	c0.3,3.6-1.8,7-5.1,8.2c-5.8,2.1-8.7,9.2-4.1,17.8c-7.2,18-11.1,37.7-11.1,58.3c0,20.3,3.9,39.6,10.8,57.4c-5.3,7.1-4,15.6,5,16.6
	c2.4,0.3,4,2.6,3.3,4.9c-2.8,9.7,0.7,15.8,10.7,16.7c2.3,0.2,4,2.4,3.5,4.6c-1.7,8.5,2.7,14.4,11.3,13.4c2.3-0.3,4.4,1.7,4.2,4.1
	c-0.7,7.9,5.2,12.3,11.9,10.4c2.2-0.6,4.5,0.6,4.9,2.8c0.8,3.9,3.4,8.4,10.4,7.9c1.6-0.1,3.4-0.4,5.4-0.7
	c9.8,5.4,20.2,9.8,31.1,13.1c0.7,8.9,9,11.4,15,6.9c1.8-1.3,4.5-0.7,5.5,1.3c3,5.8,9,5.3,12.7,1.2c1.5-1.7,4.1-1.8,5.7-0.2
	c4.4,4.8,10.2,4.2,13.7-0.2c1.4-1.9,4.1-2,5.7-0.3c4.6,4.8,9.9,4,12.9-0.8c1.2-1.9,3.7-2.2,5.5-0.9c5,3.7,10.8,2.2,13.1-2.9
	c0.9-1.9,3.2-2.7,5.1-1.7c7.1,4,12.7-1.4,12.7-8.4c25-10.7,46.6-27.6,63-48.8c10.6,2.4,15.5-3.7,14-10.9c-0.5-2.5,0.9-5.1,3.3-5.8
	c5.7-1.7,8.8-7.6,6.4-14c-1-2.6,0.2-5.5,2.8-6.6c6.2-2.7,9.3-9.6,4.6-18.1c-1.2-2.3-0.4-5,1.7-6.5c6.7-4.7,8.1-13.4,3-20
	C320.3,198.1,320.3,195.4,321.9,193.5z"/>
<g>
	<linearGradient id="SVGID_2_" gradientUnits="userSpaceOnUse" x1="54.5472" y1="176.1006" x2="251.5115" y2="176.1006">
		<stop  offset="0" style="stop-color:#682C27"/>
		<stop  offset="1" style="stop-color:#A7303F"/>
	</linearGradient>
	<path class="st2" d="M57.6,202.3c2.5,1.9,4.8,1.7,6.3,1.2c1.6-0.5,3.5-2,3.9-5.8c0.7-10.5,1.8-22.6,4.2-32.5
		c1.5-6.3,4-14.8,7.4-14.8c0,0,0,0,0.1,0c0.3,0,0.6,0.1,0.8,0.3c1.8,2,1.4,10.4,1.1,14.9c-0.2,2.6-0.5,7.5-1.1,14.4
		c-0.5,6.7-0.7,11-0.7,12.9c0.1,1.8,0.8,3.5,2.2,4.9c1.4,1.4,3.2,2.1,5.2,2c1.8-0.1,3-0.6,3.8-1.7c0.7-0.9,1-2.1,1-3.8
		c0.3-8.1,0.8-15.1,1.5-20.8l0.1-1.1c0.4-3.8,1.8-15.3,6-15.3c0,0,0,0,0,0c0.4,0,0.7,0.1,1,0.5c2.5,2.9,1.2,14.1,0.5,19.5
		c-0.2,1.3-0.3,2.4-0.4,3.3c-0.6,6-0.8,10.5-0.6,13.4c0.1,2.8,0.7,5.2,1.6,7.3c1,2.2,2.6,4,4.8,5.3c2,1.2,4.2,1.8,6.6,1.8
		c0.4,0,0.8,0,1.1,0c7.3-0.5,10.2-7.2,11.8-12c1.9,1.2,4.1,2,6.5,2.2c4.5,0.4,7.3-1.9,9.1-4.6c1.9,6.3,5.7,8.2,7.1,8.7
		c2,0.7,4.2,0.7,6.1-0.1c3.4-1.4,5.7-4.2,7.3-7.4c0.3,1.9,1.4,3.6,3.2,4.8c2,1.4,4.2,1.7,6.3,1c1.4-0.4,3.6-1.8,3.5-5.8
		c-0.1-2.7,0.1-5.4,0.3-8l0.1-1.1c0.7-12.1,4.4-25.7,8.8-32.5c0.7-1.1,2.2-2.9,3.7-2.7c4.6,0.5,3,17.7,2.5,23.4
		c-0.1,0.8-0.1,1.6-0.2,2.3c-0.6,7.9-0.9,13-0.7,15.9c0.1,1.9,0.4,7.5,4.2,10.9c2.2,1.9,5.1,2.8,8.7,2.5c2.8-0.2,5.3-1.6,7.4-4
		c0.9-1,2.3-3.2,3.5-6c1.8,1.3,3.9,2.1,6.3,2.3c2.9,0.2,6.4-0.6,9.1-4.8c1.7,6.3,5.2,8.4,6.9,9c2,0.8,4.1,0.7,6.1-0.1
		c3.6-1.6,6.3-5.1,8.2-10.7c1-2.9,2.2-9.6,1.1-11.6c-0.3-0.6-0.8-0.9-1.4-1.1c-1-0.2-1.7,0-2.1,0.3c-1.1,0.7-1.3,2-1.4,2.5
		c-0.4,2.4-1.5,7.1-3,9.1c-0.8,1.1-1.4,1-1.6,1c-0.3-0.1-1.2-1.4-1.5-3.9c-0.3-3,0-6.1,0.3-10.7c0.1-1.2,0.2-2.6,0.3-4.1
		c0.7-9.7,0.8-11.6,0.8-12.2c-0.1-1.6-1-3.1-2.7-4.3c-1.6-1.1-3.2-1.6-4.9-1.5c-2.3,0.1-3.9,1.6-4.3,3.9c0,0.2-0.1,0.7-0.1,1.4
		c-0.3,4.6-1.1,18.4-3.9,27.1c-0.6,2-2.4,5.1-5.1,4.4c-1.9-0.5-1.1-8.2-0.6-12.8c0.1-1.2,0.3-2.4,0.4-3.5c0.1-1.1,0.2-2.1,0.3-3.2
		c0.1-1.6,0.3-3.2,0.4-4.8c0.3-2.7,0.4-5.1,0.5-7.2l0-0.2c-0.1-1.3-0.6-3.3-2.9-4.9c-1.7-1.2-3.7-1.8-5.8-1.7
		c-1.4,0.1-2.2,0.7-2.6,1.2c-0.6,0.7-0.8,1.6-0.8,2.7c0,0.2,0,0.6,0.1,1.2c0.1,0.5,0.1,1,0.1,1.1c-0.1,1.5-0.4,5.1-0.9,10.6
		c-0.5,5.7-0.8,10.3-0.6,13.7c0.1,2.6,0.6,4.9,1.5,6.8c-1.3,3.3-2.7,6-4,7c-0.9,0.8-1.8,0.5-2.2,0.3c-0.8-0.4-1.8-1.5-1.8-3.2
		c0-2.4,0.1-7.8,0.7-15.9c0.6-8.4,0.9-13.3,0.8-15c-0.3-6.6-1.7-11.4-4.1-14.7c-2.6-3.5-6.3-5.1-11-4.9c-3.2,0.2-6.4,2.2-9.3,6
		c-0.8,1-1.5,2.2-2.2,3.4c-0.4-1-1.1-2-2.6-2.9c-1.9-1.3-4-1.7-6.1-1.2c-1.4,0.3-3.8,1.4-4.2,5.1c-0.4,4.4-0.8,8.7-1.1,12.8
		c-0.4,1.9-0.8,4.2-1.3,6.6c-0.2,0.8-0.3,1.8-0.5,3c-0.4,2.7-1.1,6.3-1.9,9.6c-1.1,4.2-2.3,5.7-4,5.4c-0.3-0.1-1.3-1.3-1.6-3.7
		c-0.3-2.9,0-5.8,0.4-10.2c0.1-1.2,0.2-2.5,0.3-3.9c0.8-9.2,0.9-11.1,0.8-11.7c-0.1-1.6-1-3-2.9-4.2c-1.6-1-3.3-1.5-5-1.4
		c-2.4,0.1-4,1.5-4.4,3.8c0,0.2-0.1,0.7-0.1,1.4c-0.3,4.3-1.2,17.6-4.1,25.8c-0.7,2.1-2.2,4.1-3.5,4.6c-0.4,0.2-0.8,0.2-1.1,0
		c-2.6-1.3-1.7-9.4-1.1-15.4l0-0.4c0.1-1,0.2-2,0.3-3c0.1-1.5,0.3-3,0.5-4.6c0.3-2.6,0.5-4.8,0.5-6.8l0-0.4
		c-0.1-1.3-0.6-3.2-3.1-4.8c-1.8-1.1-3.7-1.6-5.9-1.6c-1.4,0.1-2.2,0.7-2.6,1.1c-0.6,0.7-0.9,1.6-0.8,2.7c0,0.2,0,0.6,0.1,1.2
		c0.1,0.5,0.1,0.9,0.1,1c-0.1,1.4-0.4,4.8-1,10.1c-0.6,5.5-0.8,9.9-0.7,13.1c0.1,2.4,0.7,4.6,1.6,6.5c-1.4,4.4-3.5,9-7.4,9
		c0,0-0.1,0-0.1,0c-1,0-1.4-0.4-1.7-0.7c-1.7-2-1-7.9-0.5-12.2c0.2-1.6,0.4-3.1,0.4-4.4c0.6-10.9,0.7-17.7-0.8-22.2
		c-2.1-6.5-6.7-9.7-12.9-9c-3.1,0.4-5.6,1.9-7.6,4.7c-2.2-8.2-6.3-12.3-12.3-12c-3.2,0.1-6.1,2.2-8.5,6.1c-0.5,0.8-1,1.7-1.5,2.7
		c-0.4-0.7-1.1-1.5-2.1-2.2c-1.9-1.4-4-1.8-6.2-1.3c-1.4,0.3-3.8,1.4-4.2,5.3c-1.2,15.9-1.9,29.8-1.9,41.3
		C54.6,198.8,55.6,200.8,57.6,202.3z"/>
	<linearGradient id="SVGID_3_" gradientUnits="userSpaceOnUse" x1="43.7718" y1="251.2679" x2="292.4571" y2="251.2679">
		<stop  offset="0" style="stop-color:#682C27"/>
		<stop  offset="1" style="stop-color:#A7303F"/>
	</linearGradient>
	<path class="st3" d="M292.4,247.1c-0.2-1.5-0.9-2.7-2-3.5c0.6-1.3,0.6-2.8,0-4.2c-0.7-1.7-2.1-3-3.8-3.5c0-0.9-0.2-1.9-0.8-2.7
		c-1.1-1.6-3.4-2.9-6.1-2.2c-1.8-1.1-3.8-1.9-5.9-2.5c-0.9-2.5-3-3.7-4.9-3.6c-1.5,0-2.8,0.7-3.7,1.8c-1.3-0.7-2.9-0.8-4.4-0.3
		c-1.4,0.5-2.4,1.5-3,2.7c-1.4-0.3-2.9,0.1-4.2,1c-1.3,1-2.3,2.6-2.5,4.4c-0.9,0.2-1.7,0.6-2.4,1.3c-1.5,1.6-2.1,4.4-0.6,6.9
		c-0.7,2.1-1,4.3-1,6.5c0,0.9,0.1,1.7,0.2,2.6c-1.8,0.7-3.7,1.5-5.6,2.3c-2.5-5.7-5-11.5-6.7-16.3c2.4-3,5.2-7.4,6.1-12.1
		c1.1-5.7,0.1-10.8-2.6-13.6c-1.4-1.5-4.1-3.2-8.7-2.6c-8.2,1.1-12.5,8.7-11.9,21.6c0.2,4.6,1.3,10,3.4,16.1
		c1.6,4.8,3.4,10.1,5.1,14.1l-1,1c-1,0.7-1.9,1.6-2.7,2.5c-2.8,2.2-5.4,3.3-7.5,3c-1.2-0.2-2.1-0.7-2.8-1.8
		c-1.8-2.5-1.7-7.9-1.5-13.1l0-0.5c0.1-3.9,0.7-10.4,1.2-15.1c0.5-4.7,0.6-6.3,0.5-6.9c-0.2-1.7-0.3-2.3-0.5-2.7
		c-0.5-1.1-1.7-2.2-3.5-3.1c-1.9-0.9-3.8-1.2-5.7-0.8c-1.2,0.3-3.2,1.1-3.8,4c-1.7-0.5-4.2-1.1-6.9-0.9c-5.2,0.3-10,2.9-13.7,7.5
		c-2.7,3.4-4.4,7.8-5.1,13.6c-0.8,6.3-0.2,11.2,1.8,15.4c0.6,1.2,1.2,2.3,2.1,3.3c-2.1,6.8-4.6,8.3-5.5,8.6
		c-1.4,0.5-2.4,0.4-3.3-0.2c-1.2-0.9-2.1-3-2.1-5.4c-0.1-3.8,0.8-9.7,1.4-13.9c0.1-0.5,0.2-0.9,0.2-1.4c0.8-4.7,2-11.8-4.1-16.1
		c-3.8-2.6-8.9-3.2-12-3.5c1.5-5.9,2.2-10.2,2.1-13c-0.4-7.8-4.4-11.9-11.4-11.6c-4.3,0.2-7.7,1.9-10.1,4.9c-2.3,3-3.4,6.5-3.2,10.5
		c0.2,4,1.6,7.8,4.3,11c2.2,2.7,5.3,4.6,9,5.7c-2,7.1-6.5,22-10.1,24.5c-0.7,0.5-1.4,0.7-2.3,0.5c-0.7-0.1-1.8-1.7-2.1-4.4
		c-0.3-3.3,0-6.6,0.5-11.6c0.1-1.3,0.3-2.8,0.4-4.4c1-10.5,1-12.7,1-13.3c-0.1-1.8-1.2-3.3-3.2-4.6c-1.8-1.1-3.7-1.6-5.7-1.6
		c-2.7,0.1-4.4,1.6-4.8,4.1c0,0.2-0.1,0.7-0.1,1.6c-0.4,5-1.5,20.1-4.9,29.5c-0.8,2.1-2.5,4.6-4.3,5.4c-0.6,0.3-1.2,0.3-1.7,0
		c-3.2-1.5-2.2-10.9-1.4-17.8l0.1-0.5c0.1-1.1,0.2-2.3,0.4-3.4c0.2-1.8,0.4-3.5,0.6-5.2c0.4-2.9,0.6-5.5,0.7-7.9l0-0.3
		c-0.1-1.5-0.7-3.6-3.5-5.3c-2-1.3-4.3-1.8-6.8-1.7c-1.2,0.1-2.2,0.5-2.8,1.2c-0.7,0.7-1,1.7-0.9,2.9c0,0.2,0,0.6,0.1,1.4
		c0.1,0.5,0.1,1,0.1,1.3c-0.1,1.7-0.5,5.5-1.2,11.5c-0.7,6.2-1,11.2-0.8,15c0.1,2.3,0.6,4.5,1.4,6.5c-1.1,2.6-2.3,4.5-3.3,5.3
		c-0.9,0.8-1.8,0.5-2.2,0.3c-0.8-0.4-1.8-1.5-1.8-3.2c0-2.4,0.1-7.8,0.7-15.9c0.6-8.4,0.9-13.3,0.8-15c-0.3-6.6-1.7-11.4-4.1-14.7
		c-2.6-3.5-6.3-5.1-11-4.9c-3.2,0.2-6.4,2.2-9.3,6c-0.8,1-1.5,2.2-2.2,3.4c-0.4-1-1.1-2-2.6-2.9c-1.9-1.3-4-1.7-6.1-1.2
		c-1.4,0.3-3.8,1.4-4.2,5.1c-1.6,16.1-2.2,29.4-1.7,39.5c0.1,2.3,1.3,4.2,3.3,5.5c2,1.4,4.2,1.7,6.3,1c1.4-0.4,3.6-1.8,3.6-5.8
		c-0.1-2.7,0.1-5.4,0.3-8l0.1-1.1c0.7-12.1,4.4-25.7,8.8-32.5c0.7-1.1,2.2-2.9,3.7-2.7c4.6,0.5,3,17.7,2.5,23.4
		c-0.1,0.9-0.1,1.6-0.2,2.3c-0.6,7.9-0.9,13-0.7,15.9c0.1,1.9,0.4,7.5,4.2,10.9c2.2,1.9,5.1,2.8,8.7,2.5c2.8-0.2,5.3-1.6,7.4-4
		c0.8-0.9,1.7-2.3,2.5-3.9c2.7,2.6,6.3,4,9.8,3.6c5.2-0.6,8.4-3.1,10.3-6.3c1.8,7.2,6,10,8.7,10.6c6,1.2,11.1-1.6,15.2-8.3
		c4.5-7.3,7.8-18.1,10.5-27.1c0.1,0,0.1,0,0.2,0l0.8,0.1c2.5,0.3,3.1,1.3,3.4,3.4c0.6,3.4-0.2,6.9-1.1,10.5
		c-0.8,3.6-1.7,7.3-1.4,11.3c0.4,5.4,5.4,13.5,15,13.8c0.2,0,0.4,0,0.6,0c8.7,0,13-7.7,14.1-10c0.4-0.8,0.7-1.6,1.1-2.5
		c4.8,2.4,10.5,1.5,14.5-2.6c1.3-1.4,2.2-2.9,3.3-4.8c0.6,2.8,1.7,5.7,3.6,7.9c2.3,2.6,5.4,3.9,9.2,3.9c0,0,0.1,0,0.1,0
		c2.1,0,4.1-0.5,5.9-1.1c-0.6,2.7-0.5,5.5,0.1,8.5c1,5.2,4,8.9,8.2,10.4c1.4,0.5,2.9,0.7,4.3,0.7c3.8,0,7.4-1.5,9.5-3.4
		c6.6-5.7,7.1-13.7,7-16.9c-0.1-2.3-0.5-7.8-2.7-13.1c1.5-0.7,3-1.3,4.4-1.8c0.1,0.2,0.1,0.4,0.2,0.6c-1.3,2.3-0.8,4.6,0.4,6
		c1,1.1,2.3,1.7,3.7,1.7c0.3,1.5,1.2,2.8,2.6,3.6c1.3,0.8,2.7,0.9,4,0.6c0.7,1.3,1.9,2.2,3.4,2.6c0.5,0.1,1,0.2,1.5,0.2
		c1.3,0,2.5-0.4,3.5-1.1c0.7,0.6,1.6,0.9,2.6,1c2,0.2,4.6-1,5.6-3.8c4.8-1.9,8.7-5.5,11.1-10c2.2-0.4,3.9-1.8,4.3-3.8
		c0.3-1.4,0-2.9-0.9-4C292.1,250.2,292.6,248.7,292.4,247.1z M145.5,233.2c-1.6-1.8-2.2-5.3-1.9-8.5c0.3-2.9,1.4-4.7,2.3-4.7
		c0,0,0,0,0,0c0.3,0,0.4,0.1,0.4,0.2C147.1,221.2,147.5,224.3,145.5,233.2z M190.2,262.6c-1.3,0.1-2.2-0.3-2.9-1.2
		c-2.5-3-2-10.8-0.8-15.4c0.9-3.5,3.6-11,11-11c0.4,0,0.7,0,1.1,0.1C197.8,259.6,192.5,262.5,190.2,262.6z M230.6,283.8
		c-0.4,0.5-1.1,1.2-2.9,1.3c0,0-0.1,0-0.1,0c-2.3,0-3.3-2.1-3.7-3.8c-1.1-4.6,0.8-11.1,4.9-14.2c0.7,1.8,1.4,3.7,1.7,5.1
		C232.4,279.3,231.6,282.5,230.6,283.8z M232.4,229.8c-2.3-8.4-1.1-10.4-0.7-10.8c0.1-0.1,0.2-0.3,0.8-0.3c0.2,0,0.4,0,0.6,0.1h0
		c0.4,0.1,0.8,0.4,1,1C234.9,221.7,234.6,225.3,232.4,229.8z"/>
</g>
<path class="st4" d="M57.3,198.6c1.5,1.1,3,1.4,4.6,0.9c1.5-0.5,2.4-1.9,2.6-4.2c0.9-12.2,2-23.5,4.3-32.8
	c2.3-9.4,4.8-16.3,9.3-16.2c4.3,0.1,4.2,8,3.7,17.2c-0.2,2.8-0.5,7.9-1.1,14.5c-0.5,6.6-0.7,10.8-0.7,12.7c0.1,1.4,0.6,2.6,1.7,3.6
	c1.1,1,2.3,1.5,3.8,1.4c1.2-0.1,2-0.4,2.4-0.9c0.4-0.6,0.6-1.5,0.7-2.7c0.3-8.1,0.8-15.1,1.5-20.9c0.6-4.8,1.7-18.1,8.1-18
	c7,0.1,3.5,19.3,3,25.3c-0.5,6-0.8,10.4-0.6,13.1c0.1,2.5,0.6,4.8,1.5,6.6c0.9,1.9,2.2,3.4,4.1,4.4c1.8,1.1,4.1,1.7,6.6,1.5
	c7.5-0.6,9.6-9,10.9-13.5c2,2.2,4.7,3.4,7.7,3.6c5.8,0.5,8.3-4.1,9.8-9.8c0.2,10.4,4.9,13.3,6.9,14c1.6,0.6,3.2,0.5,4.8-0.1
	c6.4-2.6,8.5-11.6,9.6-16.6c0,3.7,0,7.1,0.2,10.1c0.1,1.7,0.9,3,2.5,4.1c1.6,1,3.1,1.3,4.7,0.8c1.5-0.5,2.3-1.8,2.3-4
	c-0.1-3.1,0.1-6.2,0.3-9.3c0.7-12,4.3-26,9.1-33.4c1.4-2.2,3.3-3.8,5.4-3.6c7,0.7,4.6,20,4,27.7c-0.6,7.7-0.9,12.9-0.7,15.5
	c0.1,2.4,0.5,12.6,10.9,11.7c2.6-0.2,4.6-1.6,6.2-3.4c1.1-1.3,2.9-4.4,4.3-8c1.8,2.3,4.3,3.5,7.1,3.7c5.6,0.5,8.4-4.4,9.8-10.3
	c0.3,10.9,4.8,14,6.7,14.7c1.5,0.6,3.1,0.6,4.6-0.1c3.6-1.6,5.8-5.5,7.2-9.6c1.3-3.7,1.9-10.1,1.1-10.3c-0.5-0.1-0.9,0.1-1.1,1.3
	c-0.1,0.6-1.2,7.1-3.4,9.9c-0.9,1.1-2,1.9-3.4,1.7c-1.6-0.3-2.7-2.7-3-5.6c-0.4-4,0.1-7.9,0.7-15.1c0.5-7.2,0.8-11.2,0.8-12
	c0-1-0.7-2-1.9-2.8c-1.2-0.9-2.5-1.3-3.7-1.2c-1.5,0.1-2.3,0.8-2.5,2.3c-0.1,1.3-0.7,18.6-4.1,28.9c-1.1,3.3-3.7,6.6-7.4,5.6
	c-4.1-1.1-2.3-10.4-1.6-18.3c0.3-2.7,0.5-5.3,0.7-8c0.3-2.6,0.4-5,0.5-7c0-0.1,0-0.2,0-0.2c-0.1-1.4-0.8-2.5-2.2-3.5
	c-1.4-1-2.9-1.4-4.7-1.3c-1.1,0.1-1.7,0.7-1.6,2c0,0.2,0,0.5,0.1,1.1c0.1,0.6,0.1,1.1,0.1,1.4c-0.1,1.5-0.4,5.1-0.9,10.7
	c-0.5,5.6-0.7,10.1-0.6,13.5c0.1,2.8,0.7,5,1.6,6.8c-1.2,3.3-2.9,7-4.8,8.5c-2.9,2.4-7.1,0-7.1-4.3c0-2.4,0.1-7.8,0.8-16
	c0.6-8.3,0.9-13.2,0.8-14.8c-0.6-12.3-5-18.3-13.2-17.8c-2.7,0.1-5.3,1.9-7.9,5.3c-2.6,3.4-4.6,7.8-6,13.1c0-0.6,0.2-2,0.3-4.4
	c0.2-2.4,0.3-3.9,0.3-4.4c0.2-1.2-0.5-2.3-2-3.3c-1.5-1-3.1-1.3-4.7-1c-1.6,0.4-2.5,1.5-2.7,3.5c-0.5,4.5-0.8,8.8-1.1,12.9
	c-0.4,1.9-0.8,4.3-1.3,6.7c-0.5,2.4-1.2,7.9-2.5,12.7c-0.7,2.7-2.1,7.5-6.2,6.8c-1.6-0.3-2.8-2.6-3.1-5.3c-0.4-3.9,0.1-7.5,0.7-14.4
	c0.6-6.9,0.9-10.7,0.8-11.4c0-1-0.7-1.9-2-2.7c-1.3-0.8-2.6-1.2-3.9-1.1c-1.5,0.1-2.4,0.8-2.6,2.2c-0.2,1.2-0.8,17.8-4.3,27.5
	c-1.1,3.2-4.1,7.1-7.2,5.6c-3.8-1.9-2.9-10.1-2-17.7c0.3-2.6,0.5-5.1,0.8-7.6c0.3-2.5,0.5-4.7,0.5-6.6c0-0.1,0-0.2,0-0.2
	c-0.1-1.3-0.8-2.4-2.2-3.3c-1.4-0.9-3-1.3-4.8-1.3c-1.2,0.1-1.7,0.7-1.7,1.9c0,0.2,0,0.5,0.1,1.1c0.1,0.6,0.1,1,0.1,1.3
	c-0.1,1.4-0.4,4.9-1,10.2c-0.6,5.4-0.8,9.7-0.7,12.9c0.1,2.6,0.8,4.7,1.8,6.4c-1.2,4.1-3.6,11.2-9.5,11.1c-7.2-0.1-4-12.6-3.6-19.2
	c0.6-10,0.7-17.1-0.7-21.5c-2.5-7.7-7.9-8.1-10.9-7.7c-3.2,0.4-6.4,2.5-8.6,8.5c-1.5-10.8-5.3-16.1-11.4-15.8
	c-2.6,0.1-4.9,1.9-7,5.2c-2.1,3.4-3.7,8-5,13.8c0-0.6,0.2-2.1,0.3-4.6c0.2-2.5,0.3-4.1,0.3-4.6c0.2-1.3-0.5-2.5-2-3.5
	c-1.5-1.1-3.1-1.4-4.7-1c-1.6,0.4-2.5,1.6-2.7,3.7c-1.2,15.9-1.9,29.6-1.9,41.1C55,196.1,55.8,197.5,57.3,198.6z"/>
<path class="st4" d="M240.7,256.7c4-2,7.1-3.2,10.6-3.6c-0.5-1.4-1.1-1-1.3-2.5c-3.4,0.7-7.6,2.6-10.6,4.1c-3.4-7.6-6.2-14-7.9-19.2
	c3.2-3.8,5.6-8.1,6.3-12.1c1.2-6.6-0.1-15.2-9.2-14c-10,1.3-10.5,13.4-10.2,19.7c0.2,4.4,1.3,9.6,3.3,15.6c2,5.9,4,11.7,5.8,15.7
	c-0.6,0.3-1.3,0.7-2,1.3l0,0c-0.1,0.1-0.1,0.1-0.2,0.2c-0.9,0.6-1.8,1.5-2.6,2.4c-5.8,4.7-10.7,4.4-13.1,1c-2.2-3.1-2-9-1.8-14.8
	c0.2-6.7,1.8-20.6,1.7-21.8c-0.1-1.2-0.2-1.9-0.3-2c-0.3-0.8-1.2-1.5-2.7-2.3c-1.5-0.7-3-1-4.4-0.6c-1.5,0.3-2.3,1.4-2.5,3.3
	c-0.1,0.5-0.1,1-0.2,1.5c-0.1,0-3.6-1.9-8.3-1.7c-3.8,0.2-8.3,1.8-12.3,6.8c-2.7,3.4-4.1,7.7-4.7,12.7c-0.6,5-0.5,9.9,1.6,14.4
	c0.6,1.4,1.5,2.6,2.5,3.6c-1.9,6.6-4.4,10-7,10.9c-5.5,1.9-7.8-3-7.9-7.3c-0.1-3.8,0.7-9.3,1.4-14.2c0.8-4.9,2.6-11.7-3.1-15.7
	c-4.5-3.1-11.3-3.1-13.3-3.4c1.8-6.8,2.7-11.7,2.6-14.6c-0.3-6.8-3.5-10.1-9.4-9.8c-3.7,0.2-6.6,1.6-8.7,4.2c-2,2.6-3,5.7-2.8,9.3
	c0.2,3.7,1.5,7,3.9,9.9c2.4,2.9,5.7,4.7,9.9,5.5c-3.1,11.1-7.3,24.6-11.4,27.4c-1,0.7-2.2,1.1-3.7,0.8c-1.9-0.3-3.3-2.9-3.6-6.1
	c-0.5-4.4,0.2-8.6,0.9-16.4c0.7-7.8,1-12.2,1-13.1c-0.1-1.1-0.8-2.2-2.3-3.1c-1.5-0.9-3-1.4-4.6-1.3c-1.8,0.1-2.8,0.9-3.1,2.5
	c-0.2,1.4-1,20.3-5.2,31.5c-1.3,3.6-4.9,8.1-8.6,6.4c-4.5-2.1-3.4-11.6-2.4-20.2c0.3-2.9,0.6-5.8,1-8.7c0.4-2.9,0.6-5.4,0.6-7.6
	c0-0.1,0-0.2,0-0.3c-0.1-1.5-0.9-2.7-2.6-3.8c-1.7-1.1-3.6-1.5-5.7-1.4c-1.4,0.1-2,0.8-2,2.2c0,0.2,0,0.6,0.1,1.2
	c0.1,0.6,0.1,1.1,0.1,1.5c-0.1,1.7-0.5,5.6-1.2,11.7c-0.7,6.1-1,11-0.8,14.7c0.1,2.5,0.7,4.7,1.6,6.6c-1.1,2.7-2.6,5.5-4.1,6.8
	c-2.9,2.4-7.1,0-7.1-4.3c0-2.4,0.1-7.8,0.8-16c0.6-8.3,0.9-13.2,0.8-14.8c-0.6-12.3-5-18.3-13.2-17.8c-2.7,0.1-5.3,1.9-7.9,5.3
	c-2.6,3.4-4.6,7.8-6,13.1c0-0.6,0.2-2,0.3-4.4c0.2-2.4,0.3-3.9,0.3-4.4c0.2-1.2-0.5-2.3-2-3.3c-1.5-1-3.1-1.3-4.7-1
	c-1.6,0.4-2.5,1.5-2.7,3.5c-1.6,16.1-2.2,29.1-1.7,39.2c0.1,1.7,0.9,3,2.5,4.1c1.6,1,3.1,1.3,4.7,0.8c1.5-0.5,2.3-1.8,2.3-4
	c-0.1-3.1,0.1-6.2,0.3-9.3c0.7-12,4.3-26,9.1-33.4c1.4-2.2,3.3-3.8,5.4-3.6c7,0.7,4.6,20,4,27.7c-0.6,7.7-0.9,12.9-0.7,15.5
	c0.1,2.4,0.5,12.6,10.9,11.7c2.6-0.2,4.6-1.6,6.2-3.4c0.9-1,2.3-3.3,3.5-6.1c2.4,3.7,6.3,5.6,10,5.2c6.8-0.7,9.7-5.1,11.5-11.6
	c0.3,11.9,5.7,15.5,8.1,16c6.9,1.4,11-3.8,13.3-7.5c4.6-7.5,8.1-19.2,10.8-28.1c1,0.1,1.9,0.2,2.6,0.3c3.7,0.4,4.7,2.4,5.1,5
	c1.2,7.2-3.1,14-2.5,22c0.3,4,4.1,11.8,13.2,12.1c7.1,0.3,11.3-5.5,12.9-9c0.8-1.6,1.3-3.1,1.8-4.5c4.2,3.2,9.9,3.2,14.1-1.1
	c1.2-1.3,2.1-2.8,3.1-4.5c1.4-2.4,2.8-8.5,3-10.2c0,0-3,21.2,11.4,21.2c3.1,0,6.3-1.2,9.1-2.8c-1.5,3-2.2,6.8-1.3,11.6
	c2.4,11.9,14,10.9,18.9,6.6c5.9-5.1,6.5-12.1,6.4-15.5C243.9,267,243.1,261.5,240.7,256.7z M145.4,234c-7-1.5-6.4-17.9-0.9-17.9
	C149.4,216.1,147,227.4,145.4,234z M188.9,262.4c-8.3,0.4-7-13.5-5.7-19c1.4-5.4,5.6-14.3,15.8-12.1
	C198.9,238,198.3,261.9,188.9,262.4z M232.1,214.9c3.7,0.7,4.6,7.9-1.5,17.6C226.6,220.7,226.8,213.8,232.1,214.9z M226.4,284.8
	c-8.7,0.2-7.9-18.1,2-22.7c0.7,1.8,2,5.1,2.6,7.4C231.9,273,234.7,284.6,226.4,284.8z"/>
<path class="st4" d="M287.1,249c0,0,0-0.1,0-0.1c3.6-1.2,3.1-6.3-0.5-6.7c0,0,0-0.1,0-0.1c3.4-2.6,0.3-7.3-3.3-6.8
	c0-0.1-0.1-0.1-0.1-0.2c2.1-2.1-0.8-5.9-4.6-4.3c-2.1-1.4-4.5-2.4-7.1-2.9l-0.1-0.2c-0.9-4.3-5.8-4-6.5-0.1c-2-3.4-7.1-1.7-6.5,2.1
	c-3.4-3-7.6,1.4-5.9,5c-2.6-2-6.1,2.1-3.2,5.7c-0.8,2.1-1.2,4.4-1.2,6.8c0,3.4,0.9,6.5,2.3,9.3l-0.1,0.1c-2.8,3.5,0.6,7,4,5.1
	c-1.4,3.7,3.2,6.6,5.7,3.6c-0.2,4.5,5.9,5,7.6,1.5c0,0,0,0,0.1,0c0.2,3.2,5.3,3.2,6.3-1.1c5.1-1.8,9.2-5.5,11.4-10.4
	C289.7,255.3,290.5,250.6,287.1,249z"/>
<g>
	<path class="st5" d="M270.2,256.3c-0.2,0-0.6,0.1-1.1,0.2c-0.5,0.1-1,0.1-1.5,0.1c-1,0-1.7-0.2-2.1-0.7c-0.4-0.4-0.6-1.1-0.6-1.9
		c-0.6,0.9-1.3,1.5-2.1,1.9s-1.8,0.7-3,0.7c-1.2,0-2.2-0.4-3-1.1c-0.8-0.8-1.2-1.7-1.2-2.9c0-2.2,0.8-3.6,2.5-4.1
		c1.7-0.6,3.9-1,6.9-1.2v-1.3c0-1.7-0.2-2.9-0.5-3.8c-0.3-0.9-1.2-1.3-2.5-1.3c-1,0-1.7,0.2-2,0.5c-0.3,0.4-0.5,0.9-0.5,1.5
		c0,0.6-0.2,1.1-0.5,1.4c-0.4,0.3-0.7,0.4-1.1,0.4c-0.5,0-0.9-0.1-1.2-0.4c-0.3-0.3-0.5-0.7-0.5-1.2c0-1,0.6-1.9,1.9-2.5
		c1.3-0.6,2.6-1,4-1c2.3,0,3.8,0.5,4.6,1.4c0.8,0.9,1.2,2.3,1.2,4.2v8.8c0,0.6,0.1,1,0.3,1.3c0.2,0.2,0.6,0.4,1.2,0.4
		c0.1,0,0.3,0,0.5-0.1c0.2,0,0.3-0.1,0.4-0.1V256.3z M265,248.4c-1.5,0-2.9,0.2-4.2,0.7c-1.3,0.5-2,1.5-2,2.9c0,0.9,0.2,1.6,0.7,2.2
		c0.5,0.6,1,0.9,1.7,0.9c1.1,0,2-0.5,2.7-1.4c0.7-0.9,1.1-2,1.1-3.3V248.4z"/>
	<path class="st5" d="M268.9,255.7c0.9,0,1.6-0.2,2-0.5c0.4-0.3,0.7-1,0.7-2.1v-9.7c0-1-0.3-1.6-0.8-1.9c-0.5-0.3-1.2-0.4-1.9-0.4
		v-0.6l5.5-0.9v3.8c0.6-1.4,1.3-2.4,2.1-3c0.8-0.5,1.6-0.8,2.6-0.8c0.4,0,0.9,0.1,1.2,0.4c0.4,0.3,0.5,0.7,0.5,1.2
		c0,0.5-0.2,0.9-0.5,1.2c-0.3,0.3-0.7,0.5-1.2,0.5c-0.4,0-0.8-0.1-1.2-0.4c-0.4-0.3-0.7-0.4-0.8-0.4c-0.5,0-1.1,0.5-1.8,1.4
		c-0.6,1-1,2.4-1,4.2v5.4c0,0.8,0.2,1.5,0.5,1.9s1.1,0.7,2.2,0.7v0.6h-8.1V255.7z"/>
</g>
<path class="st0" d="M228.1,82.8c-5.2-12.3-20.3-13.5-24.1-13.6c0-7.5-0.6-14.8-2.6-21.4c3.5-1.9,13.3-8.6,6.9-18.8
	c-5.7-9.1-16.8-4.9-19.5,0.1c-4.5-3.3-10.2-5.6-17.4-6.8c-8.8-1.4-15.9-1.1-21.5,0.4c-1.5-3.4-6.4-12.2-16.5-8.8
	c-12.4,4.2-5.2,20.4-0.8,22h0c-4,6.5-6.1,14.4-7.7,22.2c-4.6-0.3-16.8-0.4-25.6,4.8c-11,6.6-7.1,15.1-5.2,17.8
	c1.9,2.7,8.5,9,20.4-0.6c2.6-2.1,4.8-4.1,6.7-6c0.1-0.1,0.2-0.2,0.2-0.2c-5.1,21.7-10.5,48.1,11.4,50.1c19.4,1.8,14.1-19,19.8-21.5
	c2.7-1.2,8.5-1.1,11.9,2.2c4.3,4.2-9.3,20.8,13.8,24.5c8.9,1.4,18.1,0.2,22.3-26.7c0.7-4.8,1.5-10,2.1-15.2c3.9,5.4,9,10,13.1,11.3
	C225,101.7,232.9,94,228.1,82.8z"/>
<path class="st6" d="M196.7,106.7c0,0-1.3,15.1-8.6,18.7c-7.2,3.6-17.8-0.7-19.6-3.8c4.9,3.9,15.1,2.8,18.4,0.9
	C190.6,120.3,194.1,114.8,196.7,106.7z"/>
<path class="st6" d="M194,28c0,0,8.9-4.7,12.6,4.5c2.6,6.3-3.1,9.9-3.1,9.9s3.2-2.6,0.8-9.2C201.9,26.5,194,28,194,28z"/>
<path class="st6" d="M147.5,23.6l-2.1,1.7c0,0-3.8-9.7-11.2-8.7C137.8,13.6,144.9,17.8,147.5,23.6z"/>
<path class="st6" d="M165,53.3c0,0,14.2,2.4,13,13.7c-0.6,5.9-4.4,11.6-13,10.8c5.8-0.2,11.3-4.5,11.5-11.1
	C176.8,56,165,53.3,165,53.3z"/>
<path class="st7" d="M209.2,94.6c2.7-0.9,6.2-3.2,8.2-8.7c2.1-5.7,1.3-10.5,0.4-13.5c-5.6-2.7-11.6-3.1-13.8-3.2
	c0,2.9-0.4,9-0.8,12.3c-4.3,0-22.9,0.5-42.7-3.1c-19.8-3.6-37.8-9.5-37.8-9.5l2.2-10.6c-3.5-0.2-11.4-0.3-18.8,1.9
	c-0.8,3.2-1.2,7.2,0,11.1c1.6,4.8,5.1,7.8,7.8,9.5c0.2-0.2,0.4-0.3,0.7-0.5c2.6-2.1,4.8-4.1,6.7-6c0.1-0.1,0.2-0.2,0.2-0.2
	c-1.2,4.9-2.3,10.1-3.2,15.2c5.9,2,21.4,7,39.5,9.9c18.4,2.9,36.3,4.2,42.8,4.5c0.1-0.3,0.1-0.6,0.2-0.9c0.7-4.8,1.5-10,2.1-15.2
	C204.7,90.1,206.9,92.6,209.2,94.6z"/>
<polygon class="st8" points="121.3,74.5 119.2,83.8 158,94.8 201.2,98.4 202.7,87.6 167.9,84.3 130.2,76.5 "/>
<path class="st9" d="M159.2,93c-23.3-4.1-36.6-8.4-39.9-9.5c-0.2,1.2-0.5,2.4-0.7,3.5c4.4,1.3,19.6,5.7,39.9,9.5
	c21.1,3.9,38.1,4.2,42.4,4.3c0.2-1.2,0.4-2.4,0.5-3.7C197.6,97.2,182.4,97.1,159.2,93z"/>
<path class="st9" d="M159.9,87.1c-22.1-3.8-35.3-7.7-39.4-9c-0.3,1.2-0.5,2.3-0.8,3.5c5,1.4,19.8,5.6,39.5,9.1
	c21.4,3.8,38.7,4,42.6,4c0.2-1.2,0.3-2.4,0.5-3.7C198.6,91.1,183.4,91.1,159.9,87.1z"/>
<path class="st9" d="M160.7,80.8c-21.2-3.6-34.1-7.3-38.8-8.8l-0.8,3.5C126.5,77,141,81,160,84.4c21.4,3.8,38.7,4,42.6,4
	c0.1-1.3,0.3-2.5,0.4-3.7C199.2,84.8,184,84.8,160.7,80.8z"/>
<path class="st6" d="M222.6,79.3c0,0,6.3,6.8,3.8,13.1c-2.5,6.3-8.4,4.5-8.4,4.5s4,0.2,6-5.5S222.6,79.3,222.6,79.3z"/>
<path class="st7" d="M169.3,62.1c-0.8,1.8-4.7,0.4-5.5,2.6c0,0-0.7,1.9-0.9,2.8c-0.4,2.1-0.8,3.6,0.5,4.9c1.2,1.3,3.9,1.6,5.1-0.1
	c1-1.3,0.5-4.9,0.5-4.9s2.8,3.7,1.3,6.4c-1.4,2.7-5.9,2.7-10.5,1.9c-4.7-0.8-7-2.5-8-5.1c-1-2.6,2-5.6,2-5.6s-0.6,1.9-0.3,3.5
	c0.3,1.6,1.9,4.2,4.9,3.3c1.8-0.5,2.7-6.3,2.4-7.6c-0.2-1.3-0.4-1.8-2.4-2.6c-2-0.8-3.5-1.2-2.9-3.2c0.7-2.2,4.1-2.6,8.3-1.5
	C168.9,58.2,170.1,60.3,169.3,62.1z"/>
<path class="st7" d="M182.1,60.5c-1.2-0.2-2.1-1.6-1.9-3.3c0.2-1.7,1.4-2.9,2.6-2.8s2.1,1.6,1.9,3.3
	C184.5,59.4,183.3,60.6,182.1,60.5z"/>
<path class="st7" d="M144.8,53.8c-1.2-0.1-1.9-1.5-1.7-3.1c0.2-1.6,1.3-2.7,2.4-2.6s1.9,1.5,1.7,3.1C147.1,52.8,146,54,144.8,53.8z"
	/>
</svg>
